# xmcd
#
# Track frame offsets: 
#        150
#        13519
#        28779
#        43135
#        58486
#        74956
#        84076
#        101153
#        110647
#        130192
#        144590
#        161141
#        175268
#
# Disc length: 2539 seconds
#
# Revision: 1
# Processed by: cddbd v1.5.2PL0 Copyright (c) Steve Scherf et al.
# Submitted via: ExactAudioCopy v1.0b3
#
DISCID=c209e90d
DTITLE=Tom Hambridge - Boogieman
DYEAR=2009
DGENRE=Blues/Rock
TTITLE0=Good Teacher
TTITLE1=You're The Kind Of Trouble
TTITLE2=CornDog
TTITLE3=Nineteen
TTITLE4=HardBall Town
TTITLE5=You Got What I Want
TTITLE6=BoogieMan
TTITLE7=Kickin&Screamin
TTITLE8=Just For The Thrill
TTITLE9=The Last Last Time
TTITLE10=FiftyOne
TTITLE11=Burn The Whole Thing Down
TTITLE12=Shoebox
EXTD=
EXTT0=
EXTT1=
EXTT2=
EXTT3=
EXTT4=
EXTT5=
EXTT6=
EXTT7=
EXTT8=
EXTT9=
EXTT10=
EXTT11=
EXTT12=
PLAYORDER=
